HIERARCHY
ROOT Pelvis
{
	OFFSET 0.000000 0.000000 0.000000
	CHANNELS 6 Xposition Yposition Zposition Xrotation Yrotation Zrotation
	JOINT LeftUpLeg_virtual
	{
		OFFSET 0.000000 0.000000 0.000000
		CHANNELS 3 Xrotation Yrotation Zrotation
		JOINT LeftUpLeg
		{
			OFFSET 18.735201 -5.666702 -4.541200
			CHANNELS 3 Xrotation Yrotation Zrotation
			JOINT LeftLeg
			{
				OFFSET -0.021200 -31.938179 0.493100
				CHANNELS 3 Xrotation Yrotation Zrotation
				JOINT LeftFoot
				{
					OFFSET 0.021200 -31.938179 -4.336299
					CHANNELS 3 Xrotation Yrotation Zrotation
					JOINT LeftToeBase
					{
						OFFSET 0.943001 -26.722000 15.023500
						CHANNELS 3 Xrotation Yrotation Zrotation
						End Site
						{
							OFFSET 0 0 0
						}
					}
				}
			}
		}
	}
	JOINT RightUpLeg_virtual
	{
		OFFSET 0.000000 0.000000 0.000000
		CHANNELS 3 Xrotation Yrotation Zrotation
		JOINT RightUpLeg
		{
			OFFSET -18.735201 -5.666702 -4.541200
			CHANNELS 3 Xrotation Yrotation Zrotation
			JOINT RightLeg
			{
				OFFSET 0.018946 -31.938133 0.493100
				CHANNELS 3 Xrotation Yrotation Zrotation
				JOINT RightFoot
				{
					OFFSET -0.018946 -31.938126 -4.336299
					CHANNELS 3 Xrotation Yrotation Zrotation
					JOINT RightToeBase
					{
						OFFSET -0.943001 -26.722004 15.023500
						CHANNELS 3 Xrotation Yrotation Zrotation
						End Site
						{
							OFFSET 0 0 0
						}
					}
				}
			}
		}
	}
	JOINT Hips_virtual
	{
		OFFSET 0.000000 0.000000 0.000000
		CHANNELS 3 Xrotation Yrotation Zrotation
		JOINT Hips
		{
			OFFSET -0.000000 -0.000000 -0.000000
			CHANNELS 3 Xrotation Yrotation Zrotation
			JOINT Spine
			{
				OFFSET 0.000000 10.199997 -0.299500
				CHANNELS 3 Xrotation Yrotation Zrotation
				JOINT Spine1
				{
					OFFSET 0.000000 11.900002 -1.516600
					CHANNELS 3 Xrotation Yrotation Zrotation
					JOINT Spine2
					{
						OFFSET 0.000000 13.600006 -2.842500
						CHANNELS 3 Xrotation Yrotation Zrotation
						JOINT Neck_virtual
						{
							OFFSET 0.000000 0.000000 0.000000
							CHANNELS 3 Xrotation Yrotation Zrotation
							JOINT Neck
							{
								OFFSET 0.000000 9.624100 -2.890100
								CHANNELS 3 Xrotation Yrotation Zrotation
								JOINT Head
								{
									OFFSET 0.000000 14.068802 -1.351900
									CHANNELS 3 Xrotation Yrotation Zrotation
									End Site
									{
										OFFSET 0 0 0
									}
								}
							}
						}
						JOINT LeftShoulder_virtual
						{
							OFFSET 0.000000 0.000000 0.000000
							CHANNELS 3 Xrotation Yrotation Zrotation
							JOINT LeftShoulder
							{
								OFFSET 15.263000 10.923401 -0.547700
								CHANNELS 3 Xrotation Yrotation Zrotation
								JOINT LeftArm
								{
									OFFSET 25.438599 -2.830597 -13.032500
									CHANNELS 3 Xrotation Yrotation Zrotation
									JOINT LeftForeArm
									{
										OFFSET 29.960503 0.000000 0.000000
										CHANNELS 3 Xrotation Yrotation Zrotation
										JOINT LeftHand
										{
											OFFSET 27.849251 0.000000 0.000000
											CHANNELS 3 Xrotation Yrotation Zrotation
											End Site
											{
												OFFSET 0 0 0
											}
										}
									}
								}
							}
						}
						JOINT RightShoulder_virtual
						{
							OFFSET 0.000000 0.000000 0.000000
							CHANNELS 3 Xrotation Yrotation Zrotation
							JOINT RightShoulder
							{
								OFFSET -15.263000 10.923401 -0.547700
								CHANNELS 3 Xrotation Yrotation Zrotation
								JOINT RightArm
								{
									OFFSET -25.438599 -2.830597 -13.032500
									CHANNELS 3 Xrotation Yrotation Zrotation
									JOINT RightForeArm
									{
										OFFSET -29.960503 0.000000 0.000000
										CHANNELS 3 Xrotation Yrotation Zrotation
										JOINT RightHand
										{
											OFFSET -27.849251 0.000000 0.000000
											CHANNELS 3 Xrotation Yrotation Zrotation
											End Site
											{
												OFFSET 0 0 0
											}
										}
									}
								}
							}
						}
					}
				}
			}
		}
	}
}
MOTION
Frames: 13
Frame Time: 0.03333333
1.597023 82.077423 0.664658 0.000000 0.000000 0.000000 21.637437 -3.834177 -26.193917 -87.657651 -13.809780 22.133180 76.968398 -7.481145 10.730384 -13.894766 -2.293810 -5.226492 0.000000 0.000000 0.000000 21.637437 -3.834177 -26.193917 -25.554507 -29.052818 13.301865 28.295935 -11.118476 0.363688 -11.231563 -8.662298 11.048587 0.000000 0.000000 0.000000 21.637437 -3.834177 -26.193917 0.000001 -0.000000 -0.000001 9.691086 0.906331 -17.394122 6.445037 2.740807 -10.688250 0.000000 0.000000 0.000000 6.249396 2.693592 -10.811388 -0.351995 1.736450 -1.482254 0.000000 0.000000 0.000000 6.249396 2.693592 -10.811388 0.763384 -2.243206 16.026718 -56.139599 -44.766641 -98.210013 -0.000052 -55.603873 -0.000047 0.000000 0.000000 0.000000 6.249396 2.693592 -10.811388 -0.201834 -4.974899 1.334804 14.246705 61.619808 1.246857 0.000010 71.160148 -0.000012 0.000000 0.000000 0.000000 
1.607361 82.172295 0.655838 0.000000 0.000000 0.000000 21.425665 -4.108004 -25.831246 -87.249356 -13.235413 22.497023 76.848330 -7.510567 10.739767 -14.052115 -2.241207 -5.121030 0.000000 0.000000 0.000000 21.425665 -4.108004 -25.831246 -25.761443 -28.770611 12.957564 28.400630 -11.100651 0.430051 -11.168738 -8.515164 10.959832 0.000000 0.000000 0.000000 21.425665 -4.108004 -25.831246 -0.000002 -0.000001 0.000002 9.751455 0.881200 -17.308896 6.493365 2.713994 -10.616015 0.000000 0.000000 0.000000 6.300747 2.667750 -10.739114 0.051982 1.727291 -1.359028 0.000000 0.000000 0.000000 6.300747 2.667750 -10.739114 0.722183 -2.099708 15.969372 -55.551455 -45.310826 -97.712597 -0.000004 -55.603026 0.000000 0.000000 0.000000 0.000000 6.300747 2.667750 -10.739114 -0.173796 -4.568112 0.662833 13.669580 61.935397 2.610010 -0.000003 70.533943 0.000028 0.000000 0.000000 0.000000 
1.595406 82.265671 0.651871 0.000000 0.000000 0.000000 21.184856 -4.438227 -25.485242 -86.799369 -12.737469 22.905388 76.770315 -7.558407 10.749046 -14.249562 -2.109567 -5.060845 0.000000 0.000000 0.000000 21.184856 -4.438227 -25.485242 -25.930641 -28.448209 12.689100 28.476630 -11.093109 0.478504 -11.090959 -8.352549 10.860581 0.000000 0.000000 0.000000 21.184856 -4.438227 -25.485242 0.000000 0.000000 0.000000 9.798736 0.857726 -17.228064 6.534462 2.691594 -10.541850 0.000000 0.000000 0.000000 6.345205 2.646780 -10.664558 0.436935 1.727162 -1.237022 0.000000 0.000000 0.000000 6.345205 2.646780 -10.664558 0.658044 -1.924511 15.859510 -54.937926 -45.760013 -97.271524 -0.000024 -55.535998 -0.000008 0.000000 0.000000 0.000000 6.345205 2.646780 -10.664558 -0.134091 -4.148863 0.057192 13.311105 62.319998 3.667558 0.000002 69.803727 0.000004 0.000000 0.000000 0.000000 
1.566677 82.354919 0.643513 0.000000 0.000000 0.000000 20.930620 -4.821729 -25.156625 -86.328455 -12.316947 23.334843 76.725960 -7.622976 10.757497 -14.469925 -1.893750 -5.040093 0.000000 0.000000 0.000000 20.930620 -4.821729 -25.156625 -26.085998 -28.118451 12.488001 28.533269 -11.091826 0.493242 -10.994660 -8.161344 10.759105 0.000000 0.000000 0.000000 20.930620 -4.821729 -25.156625 0.000001 -0.000000 -0.000001 9.837533 0.829084 -17.144410 6.573787 2.667606 -10.462880 0.000000 0.000000 0.000000 6.388350 2.625525 -10.584642 0.793374 1.735768 -1.117432 0.000000 0.000000 0.000000 6.388350 2.625525 -10.584642 0.564463 -1.708717 15.694786 -54.281433 -46.142497 -96.841380 -0.000027 -55.447933 -0.000049 0.000000 0.000000 0.000000 6.388350 2.625525 -10.584642 -0.081808 -3.700188 -0.513617 13.028892 62.754767 4.572288 -0.000002 69.013427 -0.000005 0.000000 0.000000 0.000000 
1.527287 82.438644 0.620689 0.000000 0.000000 0.000000 20.681767 -5.244327 -24.842590 -85.853545 -11.971851 23.747560 76.696570 -7.693056 10.763376 -14.690074 -1.584667 -5.053662 0.000000 0.000000 0.000000 20.681767 -5.244327 -24.842590 -26.257727 -27.801541 12.334223 28.583604 -11.094922 0.472982 -10.879935 -7.944015 10.658257 0.000000 0.000000 0.000000 20.681767 -5.244327 -24.842590 0.000000 0.000000 0.000000 9.875354 0.789081 -17.050572 6.617680 2.636583 -10.376580 0.000000 0.000000 0.000000 6.436668 2.598923 -10.496850 1.116079 1.750396 -0.998768 0.000000 0.000000 0.000000 6.436668 2.598923 -10.496850 0.446420 -1.456531 15.488671 -53.560916 -46.487391 -96.369420 -0.000001 -55.412054 -0.000024 0.000000 0.000000 0.000000 6.436668 2.598923 -10.496850 -0.015635 -3.206061 -1.084821 12.642373 63.184987 5.530738 0.000031 68.235892 0.000006 0.000000 0.000000 0.000000 
1.482586 82.515686 0.574884 0.000000 0.000000 0.000000 20.459828 -5.683336 -24.537222 -85.392254 -11.696093 24.098326 76.658252 -7.767372 10.769020 -14.881903 -1.175980 -5.096791 0.000000 0.000000 0.000000 20.459828 -5.683336 -24.537222 -26.483321 -27.492381 12.197155 28.648651 -11.103820 0.438781 -10.754944 -7.725740 10.552542 0.000000 0.000000 0.000000 20.459828 -5.683336 -24.537222 -0.000001 0.000000 0.000000 9.922457 0.735440 -16.940563 6.672012 2.596402 -10.281417 0.000000 0.000000 0.000000 6.495884 2.564449 -10.399911 1.402783 1.766306 -0.877381 0.000000 0.000000 0.000000 6.495884 2.564449 -10.399911 0.318820 -1.185431 15.276710 -52.788712 -46.827371 -95.824692 -0.000024 -55.492644 -0.000017 0.000000 0.000000 0.000000 6.495884 2.564449 -10.399911 0.064307 -2.668169 -1.666148 12.004941 63.535069 6.712385 -0.000069 67.556732 0.000056 0.000000 0.000000 0.000000 
1.436092 82.587814 0.500263 0.000000 0.000000 0.000000 20.270065 -6.112843 -24.230615 -84.945895 -11.470726 24.358821 76.587294 -7.854793 10.775677 -15.021522 -0.673100 -5.160021 0.000000 0.000000 0.000000 20.270065 -6.112843 -24.230615 -26.788289 -27.155826 12.041302 28.752002 -11.122570 0.430050 -10.631441 -7.548132 10.428150 0.000000 0.000000 0.000000 20.270065 -6.112843 -24.230615 -0.000001 0.000000 0.000000 9.990005 0.671758 -16.811104 6.741453 2.549389 -10.177086 0.000000 0.000000 0.000000 6.570286 2.523454 -10.293948 1.652331 1.777589 -0.749000 0.000000 0.000000 0.000000 6.570286 2.523454 -10.293948 0.228740 -0.953292 15.112173 -51.984918 -47.148232 -95.169568 -0.000008 -55.744790 -0.000019 0.000000 0.000000 0.000000 6.570286 2.523454 -10.293948 0.154793 -2.111257 -2.230769 11.059615 63.733533 8.184485 -0.000030 67.046435 0.000058 0.000000 0.000000 0.000000 
1.389584 82.656174 0.396347 0.000000 0.000000 0.000000 20.124346 -6.509458 -23.909844 -84.527129 -11.268995 24.512506 76.460662 -7.979537 10.785490 -15.086141 -0.099011 -5.230780 0.000000 0.000000 0.000000 20.124346 -6.509458 -23.909844 -27.201413 -26.749046 11.831303 28.917863 -11.155260 0.489945 -10.525737 -7.457878 10.271324 0.000000 0.000000 0.000000 20.124346 -6.509458 -23.909844 -0.000002 0.000000 0.000000 10.088351 0.606473 -16.660776 6.829770 2.501670 -10.064616 0.000000 0.000000 0.000000 6.663139 2.481061 -10.180543 1.864184 1.778757 -0.611684 0.000000 0.000000 0.000000 6.663139 2.481061 -10.180543 0.202725 -0.807871 15.039752 -51.196386 -47.421464 -94.421963 0.000022 -56.166742 0.000047 0.000000 0.000000 0.000000 6.663139 2.481061 -10.180543 0.249084 -1.576474 -2.726405 9.865781 63.742030 9.884873 -0.000010 66.731467 0.000036 0.000000 0.000000 0.000000 
1.343105 82.725281 0.267181 0.000000 0.000000 0.000000 20.020335 -6.859502 -23.557816 -84.130999 -11.047130 24.568503 76.258625 -8.142054 10.799443 -15.070978 0.510469 -5.298245 0.000000 0.000000 0.000000 20.020335 -6.859502 -23.557816 -27.730802 -26.233961 11.540690 29.160345 -11.202616 0.647543 -10.449903 -7.486172 10.072817 0.000000 0.000000 0.000000 20.020335 -6.859502 -23.557816 0.000000 0.000001 0.000000 10.225564 0.551262 -16.492706 6.941146 2.461456 -9.947750 0.000000 0.000000 0.000000 6.778291 2.445103 -10.063863 2.039305 1.766223 -0.468251 0.000000 0.000000 0.000000 6.778291 2.445103 -10.063863 0.262487 -0.799319 15.081479 -50.441005 -47.607433 -93.589492 0.000010 -56.735393 -0.000008 0.000000 0.000000 0.000000 6.778291 2.445103 -10.063863 0.338241 -1.107442 -3.097296 8.580120 63.577402 11.646405 -0.000021 66.579619 -0.000013 0.000000 0.000000 0.000000 
1.295746 82.802406 0.120495 0.000000 0.000000 0.000000 19.947586 -7.164722 -23.153829 -83.736227 -10.755613 24.561586 75.944477 -8.208830 10.815483 -14.989257 1.015405 -5.392645 0.000000 0.000000 0.000000 19.947586 -7.164722 -23.153829 -28.365272 -25.590670 11.157132 29.474329 -11.260736 0.906616 -10.405301 -7.637264 9.831506 0.000000 0.000000 0.000000 19.947586 -7.164722 -23.153829 0.000001 0.000001 0.000001 10.406737 0.518002 -16.316303 7.080548 2.437201 -9.833851 0.000000 0.000000 0.000000 6.920486 2.424661 -9.951303 2.181628 1.739342 -0.326961 0.000000 0.000000 0.000000 6.920486 2.424661 -9.951303 0.401899 -0.945886 15.226519 -49.707668 -47.683122 -92.688153 -0.000058 -57.406490 -0.000062 0.000000 0.000000 0.000000 6.920486 2.424661 -9.951303 0.414129 -0.735620 -3.308393 7.395584 63.314167 13.264465 -0.000003 66.508243 0.000021 0.000000 0.000000 0.000000 
1.246796 82.895073 -0.034225 0.000000 0.000000 0.000000 19.890423 -7.445219 -22.677152 -83.310713 -10.360115 24.547758 75.445184 -7.831809 10.837491 -14.860634 1.067605 -5.628501 0.000000 0.000000 0.000000 19.890423 -7.445219 -22.677152 -29.082775 -24.820732 10.682203 29.843740 -11.320187 1.245983 -10.384498 -7.887228 9.554699 0.000000 0.000000 0.000000 19.890423 -7.445219 -22.677152 0.000000 0.000000 -0.000002 10.632433 0.517210 -16.145338 7.252288 2.435829 -9.733147 0.000000 0.000000 0.000000 7.094027 2.427720 -9.852882 2.298150 1.700537 -0.199930 0.000000 0.000000 0.000000 7.094027 2.427720 -9.852882 0.581499 -1.216051 15.437068 -48.970599 -47.656224 -91.755600 0.000032 -58.122683 0.000038 0.000000 0.000000 0.000000 7.094027 2.427720 -9.852882 0.472227 -0.471196 -3.360436 6.468825 63.061818 14.575303 0.000015 66.413631 0.000000 0.000000 0.000000 0.000000 
1.195362 83.009682 -0.189106 0.000000 0.000000 0.000000 19.834306 -7.735176 -22.112200 -82.824144 -9.823340 24.538744 74.850868 -7.458791 10.861884 -14.714637 1.107975 -5.848980 0.000000 0.000000 0.000000 19.834306 -7.735176 -22.112200 -29.857684 -23.943730 10.131985 30.241919 -11.369524 1.627456 -10.370089 -8.192381 9.253867 0.000000 0.000000 0.000000 19.834306 -7.735176 -22.112200 -0.000001 0.000000 0.000000 10.897248 0.554596 -15.994800 7.456771 2.461172 -9.655456 0.000000 0.000000 0.000000 7.299450 2.459220 -9.778108 2.396743 1.654517 -0.098702 0.000000 0.000000 0.000000 7.299450 2.459220 -9.778108 0.739549 -1.533292 15.664895 -48.211573 -47.568832 -90.855422 0.000022 -58.828283 0.000027 0.000000 0.000000 0.000000 7.299450 2.459220 -9.778108 0.512151 -0.305214 -3.288178 5.886688 62.930740 15.491188 -0.000048 66.203289 0.000025 0.000000 0.000000 0.000000 
1.140312 83.148766 -0.339935 0.000000 0.000000 0.000000 19.772438 -8.073010 -21.454922 -82.257362 -9.149057 24.561796 74.170800 -7.074618 10.888333 -14.575731 1.144567 -6.066807 0.000000 0.000000 0.000000 19.772438 -8.073010 -21.454922 -30.666702 -22.995539 9.535966 30.636489 -11.397177 2.005002 -10.339077 -8.501313 8.941853 0.000000 0.000000 0.000000 19.772438 -8.073010 -21.454922 0.000002 0.000000 0.000002 11.188400 0.629987 -15.875262 7.687055 2.512941 -9.605941 0.000000 0.000000 0.000000 7.529928 2.519335 -9.731697 2.482589 1.606782 -0.029666 0.000000 0.000000 0.000000 7.529928 2.519335 -9.731697 0.816137 -1.803549 15.871160 -47.429728 -47.490814 -90.058756 -0.000003 -59.492191 -0.000002 0.000000 0.000000 0.000000 7.529928 2.519335 -9.731697 0.535606 -0.221555 -3.141119 5.679349 63.003277 15.985192 -0.000046 65.816796 0.000072 0.000000 0.000000 0.000000 
